<svg width="1254" height="670" viewBox="0 0 1254 670" fill="none" xmlns="http://www.w3.org/2000/svg">
<g clip-path="url(#clip0_113_7250)">
<path style="mix-blend-mode:color-burn" d="M240.559 670L627 335L94.259 670H240.559ZM474.778 670L627 335L369.233 670H474.778ZM0 619.638L627 335L0 541.472V619.638ZM0 472.722L627 335L0 416.331V472.722ZM1254 416.293L627 335L1254 472.722V416.293ZM674.722 670L627 335L579.278 670H674.722ZM0 360.497L627 335L0 309.503V360.497ZM1254 541.472L627 335L1254 619.638V541.472ZM1159.74 670L627 335L1013.44 670H1159.74ZM884.767 670L627 335L779.222 670H884.767ZM1254 50.3617L627 335L1254 128.528V50.3617ZM1013.44 0L627 335L1159.74 0H1013.44ZM1254 309.503L627 335L1254 360.497V309.503ZM779.222 0L627 335L884.767 0H779.222ZM1254 197.278L627 335L1254 253.669V197.278ZM369.233 0L627 335L474.778 0H369.233ZM94.259 0L627 335L240.559 0H94.259ZM579.278 0L627 335L674.722 0H579.278ZM0 128.528L627 335L0 50.3617V128.528ZM0 253.669L627 335L0 197.278V253.669Z" fill="url(#paint0_radial_113_7250)"/>
<path fill-rule="evenodd" clip-rule="evenodd" d="M356.197 593.197C357.603 591.79 359.511 591 361.5 591L361.5 591C363.489 591.002 365.395 591.793 366.801 593.199C368.207 594.605 368.998 596.512 369 598.5C369.001 600.489 368.21 602.397 366.803 603.803C365.397 605.21 363.49 606 361.5 606C359.511 606 357.603 605.21 356.197 603.803C354.79 602.397 354 600.489 354 598.5C354 596.51 354.79 594.603 356.197 593.197ZM361.806 594.674C362.28 595.666 363.824 598.241 365.261 598.241C365.416 598.241 365.551 598.346 365.589 598.496C365.627 598.647 365.559 598.804 365.422 598.878C364.037 599.627 361.839 601.16 361.839 602.084C361.839 602.086 361.839 602.087 361.838 602.089C361.838 602.091 361.837 602.093 361.837 602.095C361.837 602.098 361.838 602.102 361.838 602.105C361.839 602.109 361.839 602.113 361.839 602.116C361.839 602.304 361.688 602.455 361.5 602.455C361.313 602.455 361.161 602.304 361.161 602.116C361.161 601.192 358.963 599.66 357.578 598.91C357.442 598.837 357.373 598.68 357.411 598.529C357.449 598.378 357.585 598.273 357.74 598.273C359.162 598.273 360.683 595.761 361.175 594.744C361.196 594.644 361.262 594.559 361.354 594.514C361.435 594.475 361.529 594.47 361.613 594.5C361.698 594.529 361.767 594.592 361.806 594.673V594.674Z" fill="white"/>
</g>
<defs>
<radialGradient id="paint0_radial_113_7250" cx="0" cy="0" r="1" gradientUnits="userSpaceOnUse" gradientTransform="translate(627 335) scale(627 335)">
<stop offset="0.1" stop-color="white"/>
<stop offset="0.41" stop-color="#F9F9F9"/>
<stop offset="0.82" stop-color="#E8E8E8"/>
<stop offset="1" stop-color="#DEDEDE"/>
</radialGradient>
<clipPath id="clip0_113_7250">
<rect width="1254" height="670" rx="50" fill="white"/>
</clipPath>
</defs>
</svg>
